<svg xmlns="http://www.w3.org/2000/svg" width="223.775" height="267.83" viewBox="0 0 223.775 267.83"><defs><linearGradient id="b" x1="166.807" x2="198.069" y1="96.087" y2="96.087" gradientUnits="userSpaceOnUse"><stop offset="0" stop-color="#c7c7c7"/><stop offset="1" stop-color="#c1c1c1"/></linearGradient><linearGradient id="c" x1="227.381" x2="258.409" y1="96.134" y2="96.134" gradientUnits="userSpaceOnUse"><stop offset="0" stop-color="#bbb"/><stop offset="1" stop-color="#b6b6b6"/></linearGradient><linearGradient id="d" x1="158.782" x2="266.055" y1="147.048" y2="147.048" gradientUnits="userSpaceOnUse"><stop offset="0" stop-color="#c8c8c8"/><stop offset="1" stop-color="#b4b4b4"/></linearGradient><linearGradient id="e" x1="155.165" x2="178.041" y1="223.366" y2="223.366" gradientUnits="userSpaceOnUse"><stop offset="0" stop-color="#ff9c00"/><stop offset="1" stop-color="#ff7b00"/></linearGradient><linearGradient id="f" x1="185.359" x2="204.789" y1="124.599" y2="124.599" gradientUnits="userSpaceOnUse"><stop offset="0" stop-color="#fff"/><stop offset="1" stop-color="#f3f3f3"/></linearGradient><linearGradient id="g" x1="218.561" x2="237.991" y1="124.599" y2="124.599" gradientUnits="userSpaceOnUse"><stop offset="0" stop-color="#fff"/><stop offset="1" stop-color="#f3f3f3"/></linearGradient><linearGradient id="h" x1="190.804" x2="218.725" y1="224.613" y2="224.613" gradientUnits="userSpaceOnUse"><stop offset="0" stop-color="#ff9c00"/><stop offset="1" stop-color="#ff7b00"/></linearGradient><radialGradient id="a" cx="212.81" cy="187.134" r="74.638" gradientUnits="userSpaceOnUse"><stop offset="0" stop-color="#e9e9e9"/><stop offset="1" stop-color="#fcfcfc"/></radialGradient></defs><g stroke-miterlimit="10" data-paper-data="{&quot;isPaintingLayer&quot;:true}" style="mix-blend-mode:normal"><path fill="#fff" d="M159.069 80.65c4.862-7.984 14.138-11.805 23.16-10.287l3.827.826c9.05 1.345 18.25-2.653 22.959-10.73l1.026-.531c3.017-1.545 6.401-1.705 9.18-.11 4.83 2.774 6.004 9.796 2.623 15.686-.18.313-.37.617-.567.911l-1.003 1.613c-5.322 9.136-15.4 13.845-25.17 12.59l-4.124-.816c-9.735-1.448-19.89 3.066-25.375 12.104zM170.333 147.799c0 44.642-36.953 80.832-82.537 80.832s-82.538-36.19-82.538-80.832c0-44.643 36.954-80.832 82.538-80.832 45.584 0 82.537 36.19 82.537 80.832z"/><path fill="none" stroke="url(#a)" stroke-width="10" d="M287.448 164.077c-13.07 27.211-41.875 46.113-75.309 46.113-32.332 0-60.336-17.677-73.967-43.452" transform="translate(-125.483 -41.085)"/><path fill="#1d0058" d="M164.286 86.071c0 42.014-34.538 76.072-77.143 76.072C44.538 162.143 10 128.085 10 86.07c0-42.013 34.538-76.07 77.143-76.07 42.605 0 77.143 34.057 77.143 76.07z"/><path fill="url(#b)" d="m166.807 120.1 7.702-48.026 23.56 27.638z" transform="translate(-125.483 -41.085)"/><path fill="#ffb9fe" d="m46.307 79.015 6.028-37.586 18.438 21.63z"/><path fill="url(#c)" d="m227.38 99.732 23.384-27.43 7.645 47.665z" data-paper-data="{&quot;index&quot;:null}" transform="translate(-125.483 -41.085)"/><path fill="#ffb9fe" d="M103.696 64.585 122.13 42.96l6.027 37.578z" data-paper-data="{&quot;index&quot;:null}"/><path fill="url(#d)" d="M266.055 147.048c0 29.653-24.014 53.692-53.637 53.692-29.622 0-53.636-24.039-53.636-53.692s24.014-53.692 53.636-53.692c29.623 0 53.637 24.039 53.637 53.692z" transform="translate(-125.483 -41.085)"/><path fill="none" stroke="#3c3c3c" stroke-width="1.5" d="M101.204 126.841c-1.719 2.486-4.633 4.121-7.938 4.121-3.288 0-6.188-1.616-7.91-4.08l-.098-.04c-1.719 2.485-4.633 4.12-7.938 4.12-3.288 0-6.188-1.616-7.91-4.08"/><path fill="none" stroke="#3c3c3c" stroke-linecap="round" stroke-width="1.5" d="m85.233 126.946.237-8.859"/><path fill="none" stroke="#fff" stroke-width="20" d="M164.286 86.071c0 42.014-34.538 76.072-77.143 76.072C44.538 162.143 10 128.085 10 86.07 10 44.058 44.538 10 87.143 10c42.605 0 77.143 34.058 77.143 76.071z"/><path fill="#fff" d="M26.716 244.51v-60.032H70.16v60.031z"/><path fill="#fff" d="M70.22 247.119c0 11.438-9.783 20.711-21.852 20.711s-21.852-9.273-21.852-20.711c0-11.438 9.783-20.711 21.852-20.711s21.853 9.273 21.853 20.711zM103.504 244.51v-60.032h43.444v60.031z"/><path fill="#fff" d="M147.008 247.119c0 11.438-9.784 20.711-21.853 20.711-12.068 0-21.852-9.273-21.852-20.711 0-11.438 9.784-20.711 21.852-20.711 12.07 0 21.853 9.273 21.853 20.711z"/><path fill="url(#e)" d="M178.04 223.366c0 6.317-5.12 11.438-11.437 11.438-6.317 0-11.438-5.12-11.438-11.438 0-6.317 5.121-11.437 11.438-11.437s11.438 5.12 11.438 11.437z" transform="translate(-125.483 -41.085)"/><path fill="url(#f)" d="M204.789 124.6c0 5.365-4.35 9.714-9.715 9.714s-9.715-4.35-9.715-9.715 4.35-9.714 9.715-9.714 9.715 4.35 9.715 9.714z" transform="translate(-125.483 -41.085)"/><path fill="url(#g)" d="M237.99 124.6c0 5.365-4.349 9.714-9.714 9.714s-9.715-4.35-9.715-9.715 4.35-9.714 9.715-9.714 9.715 4.35 9.715 9.714z" transform="translate(-125.483 -41.085)"/><path fill="#3c3c3c" d="M74.984 85.954a3.492 3.492 0 1 1-6.984 0 3.492 3.492 0 0 1 6.984 0zM109.645 85.954a3.492 3.492 0 1 1-6.984 0 3.492 3.492 0 0 1 6.984 0z"/><path fill="#ffb9fe" stroke="#ff9dfd" stroke-width="2" d="M94.13 108.659a8.505 8.505 0 0 1-17.008.019z"/><path fill="#a0a0a0" d="M38.06 128.11a53.33 53.33 0 0 1-3.702-11.475l20.816.272zM33.299 106.087v-.125c0-3.813.376-7.537 1.095-11.138l.183.08 18.842 5.77zM37.08 86.397a58.11 58.11 0 0 1 4.689-9.152l12.387 8.094z"/><path fill="#a0a0a0" d="m118.678 116.907 20.816-.272a53.33 53.33 0 0 1-3.702 11.475zM120.432 100.675l18.843-5.771.182-.08a56.866 56.866 0 0 1 1.096 11.263zM119.695 85.339l12.388-8.094a58.11 58.11 0 0 1 4.688 9.152z" data-paper-data="{&quot;index&quot;:null}"/><path fill="#ff9c00" d="M69.162 183.537a3.756 3.756 0 1 1-7.512 0 3.756 3.756 0 0 1 7.512 0z"/><path fill="#ff7b00" d="M96.8 183.537a3.756 3.756 0 1 1-7.513 0 3.756 3.756 0 0 1 7.513 0z"/><path fill="url(#h)" d="M190.804 228.367v-7.508h27.921v7.508z" transform="translate(-125.483 -41.085)"/></g></svg>